<?xml version="1.0"?><svg id="Слой_1" style="enable-background:new 0 0 512 512;" version="1.1" viewBox="0 0 512 512" xml:space="preserve" xmlns="http://www.w3.org/2000/svg" xmlns:xlink="http://www.w3.org/1999/xlink"><style type="text/css">
	.st0{fill:#6DC04D;stroke:#000000;stroke-width:12;stroke-miterlimit:10;}
	.st1{fill:#85D46B;stroke:#000000;stroke-width:12;stroke-miterlimit:10;}
</style><g><path d="M190.4,371.3L190.4,371.3c-6.2,0-11.3,5.1-11.3,11.3v85.3c0,6.2,5.1,11.3,11.3,11.3h0c6.2,0,11.3-5.1,11.3-11.3v-85.3   C201.7,376.4,196.6,371.3,190.4,371.3z"/><polygon class="st0" points="188,61.5 75.2,396.8 300.8,396.8  "/><path d="M290.7,397.4l-1.3,1.3c-1.9,1.9-5.1,1.9-7,0L128.6,244.9c-1.9-1.9-1.9-5.1,0-7l1.3-1.3c1.9-1.9,5.1-1.9,7,0l153.8,153.8   C292.6,392.3,292.6,395.5,290.7,397.4z"/><path d="M132.1,239.4l1.3,1.3c1.9,1.9,5.1,1.9,7,0l80.4-80.4c1.9-1.9,1.9-5.1,0-7l-1.3-1.3c-1.9-1.9-5.1-1.9-7,0l-80.4,80.4   C130.2,234.3,130.2,237.5,132.1,239.4z"/></g><g><path d="M309.7,418.3L309.7,418.3c-6.1,0-11,4.9-11,11v52.9c0,6.1,4.9,11,11,11h0c6,0,11-4.9,11-11v-52.9   C320.7,423.2,315.7,418.3,309.7,418.3z"/><polygon class="st1" points="308,203.2 229.7,436 386.2,436  "/><path d="M234.8,433.5l2.7,2.7c1.6,1.6,4.2,1.6,5.8,0l105.8-105.8c1.6-1.6,1.6-4.2,0-5.8l-2.7-2.7c-1.6-1.6-4.2-1.6-5.8,0   L234.8,427.7C233.2,429.3,233.2,431.9,234.8,433.5z"/></g></svg>